<?xml version="1.0" encoding="UTF-8" standalone="no"?>
<!DOCTYPE svg PUBLIC "-//W3C//DTD SVG 1.1//EN" "http://www.w3.org/Graphics/SVG/1.1/DTD/svg11.dtd">
<svg width="100%" height="100%" viewBox="0 0 2062 500" version="1.1" xmlns="http://www.w3.org/2000/svg" xmlns:xlink="http://www.w3.org/1999/xlink" xml:space="preserve" xmlns:serif="http://www.serif.com/" style="fill-rule:evenodd;clip-rule:evenodd;stroke-linejoin:round;stroke-miterlimit:2;">
    <g transform="matrix(1.02464,0,0,1.02464,-40.3772,-6.16053)">
        <g>
            <g transform="matrix(1,0,0,1,29,0)">
                <g>
                    <path d="M202.789,166.233L196.203,232.916L244.771,277.779L295.4,189.283L202.789,166.233Z" style="fill:rgb(0,149,156);"/>
                    <path d="M295.4,189.283L244.771,277.779L395.831,293.01L295.4,189.283Z" style="fill:rgb(57,193,208);"/>
                    <path d="M295.4,189.283L390.893,186.758L435.345,243.617L395.831,293.01L295.4,189.283Z" style="fill:rgb(0,149,156);"/>
                    <path d="M145.574,153.062L202.789,166.233L196.203,232.916L126.926,169.196L125.593,165.057L145.574,153.062Z" style="fill:rgb(57,193,208);"/>
                    <path d="M390.893,186.758L435.345,243.617L505.318,180.23L390.893,186.758Z" style="fill:rgb(54,193,208);"/>
                    <path d="M244.771,277.779L371.958,314.412L384.307,374.509L430.407,328.409L395.831,293.01L244.771,277.779Z" style="fill:rgb(0,174,181);"/>
                    <path d="M419.404,263.543L446.046,297.536L430.407,328.409L395.831,293.01L419.404,263.543Z" style="fill:rgb(103,202,214);"/>
                    <path d="M435.345,243.617L419.404,263.543L443.996,294.918L446.046,297.536L435.345,243.617Z" style="fill:rgb(55,193,207);"/>
                    <path d="M435.345,243.617L446.046,297.536L461.141,268.312L435.345,243.617Z" style="fill:rgb(5,148,152);"/>
                    <path d="M352.201,328.409L371.958,314.412L384.307,374.509L352.201,394.937L352.201,328.409Z" style="fill:rgb(0,149,156);"/>
                    <path d="M352.201,347.752L316.391,390.559L352.201,394.937L352.201,347.752Z" style="fill:rgb(57,193,208);"/>
                    <path d="M287.802,290.173L324.211,314.412L368.254,313.344L287.802,290.173Z" style="fill:rgb(57,193,208);"/>
                    <path d="M446.046,297.536L430.407,327.994L484.738,320.998L514.785,311.325L446.046,297.536Z" style="fill:rgb(33,181,193);"/>
                    <path d="M484.883,320.919L505.877,345.203L514.682,311.325L484.883,320.919Z" style="fill:rgb(55,198,243);"/>
                    <path d="M484.883,320.919L482.827,345.203L505.877,345.203L484.883,320.919Z" style="fill:rgb(5,148,152);"/>
                    <path d="M482.827,345.203L471.301,374.427L505.877,345.203L482.827,345.203Z" style="fill:rgb(0,174,181);"/>
                    <path d="M435.345,243.617L464.467,241.455L489.576,229.209C489.576,229.209 499.352,235.794 499.763,235.794C500.174,235.794 550.081,220.05 550.081,220.05L505.318,180.227L435.345,243.617Z" style="fill:rgb(103,202,214);"/>
                    <path d="M489.661,229.209L464.552,241.455L499.848,235.794L489.661,229.209Z" style="fill:rgb(1,86,250);"/>
                    <path d="M435.345,243.617L464.552,241.455L499.297,235.885L550.081,220.053L505.318,180.23L629.76,222.076L461.141,268.312L435.345,243.617Z" style="fill:rgb(54,193,208);"/>
                    <path d="M461.141,268.312L446.046,297.536L514.785,311.325L563.492,282.72L629.76,222.076L461.141,268.312Z" style="fill:rgb(177,224,230);"/>
                    <path d="M505.318,180.23L543.462,169.39L629.76,222.076L505.318,180.23Z" style="fill:rgb(15,169,176);"/>
                    <path d="M543.257,169.39L629.554,222.076L665.504,187.499L543.257,169.39Z" style="fill:rgb(58,193,206);"/>
                    <path d="M543.462,169.39L653.224,164.449L665.504,187.499L543.462,169.39Z" style="fill:rgb(16,170,178);"/>
                    <path d="M121.29,105.063L113.607,127.816L125.593,165.205L145.574,153.062L149.172,153.89L121.29,105.063Z" style="fill:rgb(1,86,250);"/>
                    <path d="M126.926,169.196L105.648,151.692L113.607,127.816L126.926,169.196Z" style="fill:rgb(83,172,205);"/>
                    <path d="M105.648,151.692L75.876,184.345L126.926,169.196L105.648,151.692Z" style="fill:rgb(14,132,162);"/>
                    <path d="M99.038,158.928L75.876,184.345L47.885,173.505L62.566,164.313L99.038,158.928Z" style="fill:rgb(62,198,241);"/>
                    <path d="M34.037,156.509L47.894,173.523L62.575,164.331L34.037,156.509Z" style="fill:rgb(1,86,250);"/>
                </g>
            </g>
            <g>
                <g>
                    <g>
                        <g>
                            <g>
                                <g>
                                    <g>
                                        <g>
                                            <path d="M915.09,340.316L887.544,340.316L866.145,286.206L847.945,231.854L829.99,286.699L809.083,340.316L781.537,340.316L718.332,168.153L754.732,168.153L795.313,292.354L837.123,168.153L858.274,168.153L901.314,292.354L940.665,168.153L977.065,168.153L915.09,340.316Z" style="fill:rgb(1,86,250);"/>
                                        </g>
                                    </g>
                                </g>
                            </g>
                            <g>
                                <g>
                                    <g>
                                        <g>
                                            <path d="M1019.61,168.156L1019.61,235.546C1030.43,221.528 1043.71,217.347 1057.48,217.347C1091.91,217.347 1107.16,240.714 1107.16,276.373L1107.16,340.319L1077.16,340.319L1077.16,276.618C1077.16,254.481 1065.6,245.138 1049.61,245.138C1031.9,245.138 1019.61,260.139 1019.61,278.342L1019.61,340.319L989.601,340.319L989.601,168.156L1019.61,168.156Z" style="fill:rgb(1,86,250);"/>
                                        </g>
                                    </g>
                                </g>
                            </g>
                            <g>
                                <g>
                                    <g>
                                        <g>
                                            <path d="M1228.65,219.064L1257.43,219.064L1257.43,340.316L1229.14,340.316L1227.67,322.606C1220.78,336.872 1201.84,343.757 1188.32,344.002C1152.41,344.247 1125.85,322.113 1125.85,279.566C1125.85,237.757 1153.64,215.865 1189.05,216.113C1205.29,216.113 1220.78,223.736 1227.67,235.788L1228.65,219.064ZM1155.85,279.569C1155.85,302.686 1171.84,316.462 1191.76,316.462C1238.98,316.462 1238.98,242.924 1191.76,242.924C1171.84,242.924 1155.85,256.45 1155.85,279.569Z" style="fill:rgb(1,86,250);"/>
                                        </g>
                                    </g>
                                </g>
                            </g>
                            <g>
                                <g>
                                    <g>
                                        <g>
                                            <rect x="1282.75" y="168.401" width="29.763" height="171.915" style="fill:rgb(1,86,250);"/>
                                        </g>
                                    </g>
                                </g>
                            </g>
                            <g>
                                <g>
                                    <g>
                                        <g>
                                            <path d="M1364.4,290.391C1366.37,305.392 1379.4,316.214 1400.56,316.214C1411.62,316.214 1426.13,312.032 1433.02,304.899L1452.21,323.837C1439.42,337.12 1418.51,343.512 1400.06,343.512C1358.25,343.512 1333.41,317.69 1333.41,278.831C1333.41,241.939 1358.5,215.378 1397.85,215.378C1438.43,215.378 1463.76,240.463 1459.09,290.391L1364.4,290.391ZM1430.32,265.548C1428.35,249.806 1416.05,241.939 1398.84,241.939C1382.6,241.939 1369.32,249.806 1364.89,265.548L1430.32,265.548Z" style="fill:rgb(1,86,250);"/>
                                        </g>
                                    </g>
                                </g>
                            </g>
                            <path d="M1492.04,340.316L1492.04,247.103L1469.41,247.103L1469.41,220.788L1492.04,220.788L1492.04,212.669C1492.04,180.206 1513.93,165.202 1538.28,165.202C1548.85,165.202 1559.92,168.643 1569.76,175.038L1558.69,197.42C1552.3,193.238 1546.39,191.025 1540.24,191.025C1529.91,191.025 1522.04,197.91 1522.04,212.666L1522.04,220.785L1557.71,220.785L1557.71,247.1L1522.04,247.1L1522.04,340.313L1492.04,340.313L1492.04,340.316Z" style="fill:rgb(57,193,208);"/>
                            <path d="M1677.48,219.064L1706.26,219.064L1706.26,340.316L1677.98,340.316L1676.5,322.606C1669.61,336.872 1650.68,343.757 1637.14,344.002C1601.24,344.247 1574.67,322.113 1574.67,279.566C1574.67,237.757 1602.47,215.865 1637.88,216.113C1654.12,216.113 1669.61,223.736 1676.5,235.788L1677.48,219.064ZM1604.68,279.569C1604.68,302.686 1620.67,316.462 1640.59,316.462C1687.81,316.462 1687.81,242.924 1640.59,242.924C1620.67,242.924 1604.68,256.45 1604.68,279.569Z" style="fill:rgb(57,193,208);"/>
                            <path d="M1759.37,219.064L1761.59,233.082C1770.94,218.081 1783.48,215.868 1795.78,215.868C1808.32,215.868 1820.37,220.788 1827.01,227.428L1813.49,253.498C1807.34,248.334 1801.68,245.628 1791.84,245.628C1776.1,245.628 1761.59,253.988 1761.59,276.37L1761.59,340.316L1731.59,340.316L1731.59,219.064L1759.37,219.064Z" style="fill:rgb(57,193,208);"/>
                            <g>
                                <g>
                                    <g>
                                        <g>
                                            <path d="M1918.99,340.319L1918.99,275.387C1918.99,259.401 1910.62,244.89 1894.14,244.89C1877.91,244.89 1868.32,259.401 1868.32,275.387L1868.32,340.319L1838.32,340.319L1838.32,218.819L1866.11,218.819L1868.32,233.575C1874.72,221.28 1888.74,216.854 1900.29,216.854C1914.81,216.854 1929.32,222.753 1936.2,239.477C1947.02,222.263 1961.04,217.34 1976.79,217.34C2011.22,217.34 2028.18,238.492 2028.18,274.891L2028.18,340.313L1998.18,340.313L1998.18,274.895C1998.18,258.911 1991.54,245.383 1975.31,245.383C1959.07,245.383 1948.99,259.401 1948.99,275.387L1948.99,340.319L1918.99,340.319Z" style="fill:rgb(57,193,208);"/>
                                        </g>
                                    </g>
                                </g>
                            </g>
                        </g>
                    </g>
                </g>
            </g>
        </g>
    </g>
</svg>
