<?xml version="1.0" encoding="UTF-8" standalone="no"?>
<!DOCTYPE svg PUBLIC "-//W3C//DTD SVG 1.1//EN" "http://www.w3.org/Graphics/SVG/1.1/DTD/svg11.dtd">
<svg width="100%" height="100%" viewBox="0 0 2062 500" version="1.1" xmlns="http://www.w3.org/2000/svg" xmlns:xlink="http://www.w3.org/1999/xlink" xml:space="preserve" xmlns:serif="http://www.serif.com/" style="fill-rule:evenodd;clip-rule:evenodd;stroke-linejoin:round;stroke-miterlimit:2;">
    <g>
        <g>
            <g>
                <g>
                    <path d="M197.123,164.169L190.375,232.495L240.14,278.464L292.017,187.787L197.123,164.169Z" style="fill:rgb(0,149,156);"/>
                    <path d="M292.017,187.787L240.14,278.464L394.922,294.07L292.017,187.787Z" style="fill:rgb(57,193,208);"/>
                    <path d="M292.017,187.787L389.863,185.2L435.41,243.46L394.922,294.07L292.017,187.787Z" style="fill:rgb(0,149,156);"/>
                    <path d="M138.498,150.673L197.123,164.169L190.375,232.495L119.391,167.205L118.025,162.964L138.498,150.673Z" style="fill:rgb(57,193,208);"/>
                    <path d="M389.863,185.2L435.41,243.46L507.107,178.511L389.863,185.2Z" style="fill:rgb(54,193,208);"/>
                    <path d="M240.14,278.464L370.462,315.999L383.115,377.577L430.351,330.341L394.922,294.07L240.14,278.464Z" style="fill:rgb(0,174,181);"/>
                    <path d="M419.077,263.877L446.375,298.708L430.351,330.341L394.922,294.07L419.077,263.877Z" style="fill:rgb(103,202,214);"/>
                    <path d="M435.41,243.46L419.077,263.877L444.275,296.025L446.375,298.708L435.41,243.46Z" style="fill:rgb(55,193,207);"/>
                    <path d="M435.41,243.46L446.375,298.708L461.842,268.763L435.41,243.46Z" style="fill:rgb(5,148,152);"/>
                    <path d="M350.218,330.341L370.462,315.999L383.115,377.577L350.218,398.509L350.218,330.341Z" style="fill:rgb(0,149,156);"/>
                    <path d="M350.218,350.16L313.525,394.023L350.218,398.509L350.218,350.16Z" style="fill:rgb(57,193,208);"/>
                    <path d="M284.231,291.163L321.537,315.999L366.666,314.905L284.231,291.163Z" style="fill:rgb(57,193,208);"/>
                    <path d="M446.375,298.708L430.351,329.916L486.021,322.747L516.808,312.836L446.375,298.708Z" style="fill:rgb(33,181,193);"/>
                    <path d="M486.169,322.667L507.68,347.549L516.703,312.836L486.169,322.667Z" style="fill:rgb(54,193,208);"/>
                    <path d="M486.169,322.667L484.062,347.549L507.68,347.549L486.169,322.667Z" style="fill:rgb(5,148,152);"/>
                    <path d="M484.062,347.549L472.252,377.493L507.68,347.549L484.062,347.549Z" style="fill:rgb(0,174,181);"/>
                    <path d="M435.41,243.46L465.25,241.244L490.978,228.696C490.978,228.696 500.994,235.444 501.416,235.444C501.837,235.444 552.974,219.312 552.974,219.312L507.107,178.508L435.41,243.46Z" style="fill:rgb(103,202,214);"/>
                    <path d="M491.065,228.696L465.337,241.244L501.502,235.444L491.065,228.696Z" style="fill:rgb(14,132,162);"/>
                    <path d="M435.41,243.46L465.337,241.244L500.939,235.537L552.974,219.315L507.107,178.511L634.616,221.388L461.842,268.763L435.41,243.46Z" style="fill:rgb(54,193,208);"/>
                    <path d="M461.842,268.763L446.375,298.708L516.808,312.836L566.715,283.526L634.616,221.388L461.842,268.763Z" style="fill:rgb(177,224,230);"/>
                    <path d="M507.107,178.511L546.192,167.404L634.616,221.388L507.107,178.511Z" style="fill:rgb(15,169,176);"/>
                    <path d="M545.981,167.404L634.405,221.388L671.241,185.959L545.981,167.404Z" style="fill:rgb(58,193,206);"/>
                    <path d="M546.192,167.404L658.659,162.341L671.241,185.959L546.192,167.404Z" style="fill:rgb(16,170,178);"/>
                    <path d="M113.616,101.491L105.743,124.806L118.025,163.116L138.498,150.673L142.185,151.522L113.616,101.491Z" style="fill:rgb(0,149,156);"/>
                    <path d="M119.391,167.205L97.589,149.269L105.743,124.806L119.391,167.205Z" style="fill:rgb(0,174,181);"/>
                    <path d="M97.589,149.269L67.083,182.727L119.391,167.205L97.589,149.269Z" style="fill:rgb(57,193,208);"/>
                    <path d="M90.816,156.684L67.083,182.727L38.403,171.62L53.445,162.202L90.816,156.684Z" style="fill:rgb(0,174,181);"/>
                    <path d="M24.213,154.205L38.412,171.639L53.454,162.22L24.213,154.205Z" style="fill:rgb(0,149,156);"/>
                </g>
            </g>
            <g>
                <g>
                    <g>
                        <g>
                            <g>
                                <g>
                                    <g>
                                        <g>
                                            <path d="M897.262,342.542L869.037,342.542L847.111,287.099L828.463,231.407L810.065,287.604L788.644,342.542L760.419,342.542L695.656,166.136L732.953,166.136L774.534,293.397L817.374,166.136L839.046,166.136L883.147,293.397L923.468,166.136L960.764,166.136L897.262,342.542Z" style="fill:rgb(57,193,208);"/>
                                        </g>
                                    </g>
                                </g>
                            </g>
                            <g>
                                <g>
                                    <g>
                                        <g>
                                            <path d="M1004.35,166.139L1004.35,235.19C1015.44,220.827 1029.05,216.542 1043.16,216.542C1078.44,216.542 1094.07,240.485 1094.07,277.023L1094.07,342.545L1063.32,342.545L1063.32,277.274C1063.32,254.592 1051.48,245.018 1035.1,245.018C1016.95,245.018 1004.35,260.388 1004.35,279.04L1004.35,342.545L973.61,342.545L973.61,166.139L1004.35,166.139Z" style="fill:rgb(57,193,208);"/>
                                        </g>
                                    </g>
                                </g>
                            </g>
                            <g>
                                <g>
                                    <g>
                                        <g>
                                            <path d="M1218.55,218.302L1248.04,218.302L1248.04,342.542L1219.05,342.542L1217.54,324.395C1210.49,339.013 1191.08,346.068 1177.22,346.319C1140.43,346.57 1113.21,323.89 1113.21,280.295C1113.21,237.455 1141.69,215.024 1177.98,215.278C1194.61,215.278 1210.49,223.089 1217.54,235.438L1218.55,218.302ZM1143.95,280.298C1143.95,303.984 1160.34,318.1 1180.75,318.1C1229.14,318.1 1229.14,242.75 1180.75,242.75C1160.34,242.75 1143.95,256.609 1143.95,280.298Z" style="fill:rgb(57,193,208);"/>
                                        </g>
                                    </g>
                                </g>
                            </g>
                            <g>
                                <g>
                                    <g>
                                        <g>
                                            <rect x="1273.98" y="166.39" width="30.496" height="176.151" style="fill:rgb(57,193,208);"/>
                                        </g>
                                    </g>
                                </g>
                            </g>
                            <g>
                                <g>
                                    <g>
                                        <g>
                                            <path d="M1357.64,291.387C1359.66,306.757 1373.02,317.846 1394.69,317.846C1406.03,317.846 1420.9,313.561 1427.96,306.252C1427.96,306.252 1420.9,313.561 1447.62,325.656C1434.51,339.267 1413.09,345.817 1394.19,345.817C1351.35,345.817 1325.89,319.358 1325.89,279.542C1325.89,241.74 1351.6,214.525 1391.92,214.525C1433.5,214.525 1459.46,240.228 1454.67,291.387L1357.64,291.387ZM1425.18,265.931C1423.17,249.802 1410.57,241.74 1392.93,241.74C1376.3,241.74 1362.69,249.802 1358.15,265.931L1425.18,265.931Z" style="fill:rgb(57,193,208);"/>
                                        </g>
                                    </g>
                                </g>
                            </g>
                            <path d="M1488.43,342.542L1488.43,247.032L1465.25,247.032L1465.25,220.068L1488.43,220.068L1488.43,211.749C1488.43,178.486 1510.86,163.112 1535.8,163.112C1546.64,163.112 1557.98,166.638 1568.06,173.191L1556.72,196.124C1550.17,191.839 1544.12,189.572 1537.82,189.572C1527.24,189.572 1519.17,196.626 1519.17,211.746L1519.17,220.065L1555.71,220.065L1555.71,247.029L1519.17,247.029L1519.17,342.539L1488.43,342.539L1488.43,342.542Z" style="fill:rgb(57,193,208);"/>
                            <path d="M1678.44,218.302L1707.92,218.302L1707.92,342.542L1678.95,342.542L1677.43,324.395C1670.38,339.013 1650.98,346.068 1637.11,346.319C1600.32,346.57 1573.1,323.89 1573.1,280.295C1573.1,237.455 1601.58,215.024 1637.87,215.278C1654.5,215.278 1670.38,223.089 1677.43,235.438L1678.44,218.302ZM1603.85,280.298C1603.85,303.984 1620.23,318.1 1640.64,318.1C1689.03,318.1 1689.03,242.75 1640.64,242.75C1620.23,242.75 1603.85,256.609 1603.85,280.298Z" style="fill:rgb(57,193,208);"/>
                            <path d="M1762.35,218.302L1764.62,232.665C1774.2,217.295 1787.05,215.027 1799.65,215.027C1812.5,215.027 1824.85,220.068 1831.66,226.871L1817.8,253.585C1811.5,248.293 1805.7,245.52 1795.62,245.52C1779.49,245.52 1764.62,254.087 1764.62,277.02L1764.62,342.542L1733.88,342.542L1733.88,218.302L1762.35,218.302Z" style="fill:rgb(57,193,208);"/>
                            <g>
                                <g>
                                    <g>
                                        <g>
                                            <path d="M1925.9,342.545L1925.9,276.013C1925.9,259.632 1917.33,244.764 1900.44,244.764C1883.81,244.764 1873.98,259.632 1873.98,276.013L1873.98,342.545L1843.24,342.545L1843.24,218.051L1871.71,218.051L1873.98,233.17C1880.54,220.573 1894.9,216.037 1906.74,216.037C1921.62,216.037 1936.48,222.082 1943.54,239.218C1954.62,221.58 1968.99,216.536 1985.12,216.536C2020.4,216.536 2037.79,238.208 2037.79,275.505L2037.79,342.539L2007.04,342.539L2007.04,275.508C2007.04,259.131 2000.24,245.269 1983.61,245.269C1966.97,245.269 1956.64,259.632 1956.64,276.013L1956.64,342.545L1925.9,342.545Z" style="fill:rgb(57,193,208);"/>
                                        </g>
                                    </g>
                                </g>
                            </g>
                        </g>
                    </g>
                </g>
            </g>
        </g>
    </g>
</svg>
